# xmcd
#
# Track frame offsets: 
#        150
#        9840
#        65100
#        80075
#        139380
#        183547
#        221075
#        239985
#
# Disc length: 4177 seconds
#
# Revision: 0
# Processed by: cddbd v1.5PL3 Copyright (c) Steve Scherf et al.
# Submitted via: ExactAudioCopy v0.90b4
#
DISCID=7e104f08
DTITLE=Radio-Symphonie-Orchester Berlin - Gerd Albrecht - Wolf: Der Co
DTITLE=rregidor [CD2)
DYEAR=1986
DGENRE=Opera
TTITLE0=Zwischenaktmusik
TTITLE1=II. Aufzug, 7. - 9. Szene
TTITLE2=10. Szene bis Schluﬂ
TTITLE3=III. Aufzug - Vorspiel, 1. and 2. Szene
TTITLE4=3. Szene
TTITLE5=4. Szene bis Schluﬂ
TTITLE6=IV. Aufzug - Vorspiel, 1. Szene
TTITLE7=2. Szene bis Schluﬂ
EXTD=released as Koch-Schwann CD 314010 K3 [CD 2 of 2]\nrecorded 1985,
EXTD=DDD
EXTT0=
EXTT1=
EXTT2=
EXTT3=
EXTT4=
EXTT5=
EXTT6=
EXTT7=
PLAYORDER=
